<svg xmlns="http://www.w3.org/2000/svg" xmlns:xlink="http://www.w3.org/1999/xlink" width="500" zoomAndPan="magnify" viewBox="0 0 375 374.999991" height="500" preserveAspectRatio="xMidYMid meet" version="1.0"><defs><clipPath id="5545631eb5"><path d="M 171 55 L 174 55 L 174 86.445312 L 171 86.445312 Z M 171 55 " clip-rule="nonzero"/></clipPath><clipPath id="e2eea56e1f"><path d="M 160.238281 33.195312 L 184.238281 33.195312 L 184.238281 58 L 160.238281 58 Z M 160.238281 33.195312 " clip-rule="nonzero"/></clipPath></defs><g clip-path="url(#5545631eb5)"><path fill="#222831" d="M 172.238281 86.445312 C 172.09375 86.445312 171.953125 86.417969 171.820312 86.363281 C 171.6875 86.304688 171.570312 86.226562 171.46875 86.121094 C 171.363281 86.015625 171.285156 85.898438 171.230469 85.761719 C 171.175781 85.625 171.148438 85.484375 171.148438 85.335938 L 171.148438 56.492188 C 171.148438 56.34375 171.175781 56.203125 171.230469 56.066406 C 171.285156 55.933594 171.363281 55.8125 171.46875 55.707031 C 171.570312 55.605469 171.6875 55.523438 171.820312 55.46875 C 171.953125 55.410156 172.09375 55.382812 172.238281 55.382812 C 172.382812 55.382812 172.519531 55.410156 172.65625 55.46875 C 172.789062 55.523438 172.90625 55.605469 173.007812 55.707031 C 173.109375 55.8125 173.191406 55.933594 173.246094 56.066406 C 173.300781 56.203125 173.328125 56.34375 173.328125 56.492188 L 173.328125 85.335938 C 173.328125 85.484375 173.300781 85.625 173.246094 85.761719 C 173.191406 85.898438 173.109375 86.015625 173.007812 86.121094 C 172.90625 86.226562 172.789062 86.304688 172.65625 86.363281 C 172.519531 86.417969 172.382812 86.445312 172.238281 86.445312 Z M 172.238281 86.445312 " fill-opacity="1" fill-rule="nonzero"/></g><g clip-path="url(#e2eea56e1f)"><path fill="#222831" d="M 184.230469 45.398438 C 184.230469 46.199219 184.152344 46.992188 184 47.78125 C 183.847656 48.566406 183.617188 49.328125 183.316406 50.070312 C 183.015625 50.808594 182.648438 51.511719 182.210938 52.179688 C 181.773438 52.84375 181.273438 53.460938 180.71875 54.027344 C 180.160156 54.59375 179.554688 55.101562 178.902344 55.546875 C 178.246094 55.992188 177.554688 56.367188 176.828125 56.671875 C 176.097656 56.980469 175.351562 57.210938 174.578125 57.367188 C 173.804688 57.523438 173.023438 57.601562 172.238281 57.601562 C 171.449219 57.601562 170.671875 57.523438 169.898438 57.367188 C 169.125 57.210938 168.375 56.980469 167.648438 56.671875 C 166.921875 56.367188 166.230469 55.992188 165.574219 55.546875 C 164.921875 55.101562 164.316406 54.59375 163.757812 54.027344 C 163.199219 53.460938 162.703125 52.84375 162.265625 52.179688 C 161.828125 51.511719 161.460938 50.808594 161.15625 50.070312 C 160.855469 49.328125 160.628906 48.566406 160.476562 47.78125 C 160.320312 46.992188 160.246094 46.199219 160.246094 45.398438 C 160.246094 44.597656 160.320312 43.804688 160.476562 43.019531 C 160.628906 42.234375 160.855469 41.46875 161.15625 40.730469 C 161.460938 39.988281 161.828125 39.285156 162.265625 38.621094 C 162.703125 37.953125 163.199219 37.335938 163.757812 36.769531 C 164.316406 36.203125 164.921875 35.699219 165.574219 35.253906 C 166.230469 34.808594 166.921875 34.429688 167.648438 34.125 C 168.375 33.816406 169.125 33.585938 169.898438 33.429688 C 170.671875 33.273438 171.449219 33.195312 172.238281 33.195312 C 173.023438 33.195312 173.804688 33.273438 174.578125 33.429688 C 175.351562 33.585938 176.097656 33.816406 176.828125 34.125 C 177.554688 34.429688 178.246094 34.808594 178.902344 35.253906 C 179.554688 35.699219 180.160156 36.203125 180.71875 36.769531 C 181.273438 37.335938 181.773438 37.953125 182.210938 38.621094 C 182.648438 39.285156 183.015625 39.988281 183.316406 40.730469 C 183.617188 41.46875 183.847656 42.234375 184 43.019531 C 184.152344 43.804688 184.230469 44.597656 184.230469 45.398438 Z M 184.230469 45.398438 " fill-opacity="1" fill-rule="nonzero"/></g><path fill="#ffffff" d="M 165.695312 46.507812 C 165.550781 46.507812 165.414062 46.480469 165.277344 46.425781 C 165.144531 46.367188 165.027344 46.289062 164.925781 46.183594 C 164.824219 46.078125 164.746094 45.960938 164.6875 45.824219 C 164.632812 45.6875 164.605469 45.546875 164.605469 45.398438 C 164.605469 44.890625 164.65625 44.382812 164.753906 43.882812 C 164.851562 43.382812 164.996094 42.898438 165.1875 42.425781 C 165.378906 41.957031 165.613281 41.507812 165.890625 41.085938 C 166.171875 40.660156 166.488281 40.269531 166.839844 39.90625 C 167.195312 39.546875 167.582031 39.226562 167.996094 38.941406 C 168.414062 38.660156 168.855469 38.417969 169.316406 38.222656 C 169.78125 38.03125 170.257812 37.882812 170.75 37.78125 C 171.242188 37.683594 171.738281 37.632812 172.238281 37.632812 C 172.382812 37.632812 172.519531 37.660156 172.65625 37.71875 C 172.789062 37.773438 172.90625 37.855469 173.007812 37.957031 C 173.109375 38.0625 173.191406 38.183594 173.246094 38.316406 C 173.300781 38.453125 173.328125 38.59375 173.328125 38.742188 C 173.328125 38.890625 173.300781 39.03125 173.246094 39.167969 C 173.191406 39.304688 173.109375 39.421875 173.007812 39.527344 C 172.90625 39.632812 172.789062 39.710938 172.65625 39.769531 C 172.519531 39.824219 172.382812 39.851562 172.238281 39.851562 C 171.878906 39.851562 171.523438 39.886719 171.175781 39.957031 C 170.824219 40.03125 170.480469 40.136719 170.152344 40.273438 C 169.820312 40.414062 169.507812 40.585938 169.210938 40.785156 C 168.910156 40.988281 168.636719 41.21875 168.382812 41.476562 C 168.128906 41.734375 167.902344 42.015625 167.707031 42.316406 C 167.507812 42.621094 167.339844 42.941406 167.203125 43.277344 C 167.066406 43.613281 166.960938 43.960938 166.890625 44.316406 C 166.820312 44.675781 166.785156 45.035156 166.785156 45.398438 C 166.785156 45.546875 166.757812 45.6875 166.703125 45.824219 C 166.648438 45.960938 166.570312 46.078125 166.46875 46.183594 C 166.363281 46.289062 166.246094 46.367188 166.113281 46.425781 C 165.980469 46.480469 165.839844 46.507812 165.695312 46.507812 Z M 165.695312 46.507812 " fill-opacity="1" fill-rule="nonzero"/><path fill="#222831" d="M 267.40625 159.410156 C 268.769531 168.082031 269.042969 177.164062 267.949219 186.316406 C 261.667969 239.921875 213.125 278.230469 159.53125 271.949219 C 116.246094 266.828125 82.925781 234.183594 75.007812 193.554688 C 75.074219 193.484375 183.085938 213.222656 267.40625 159.410156 M 42.164062 170.269531 C 12.328125 152.992188 37.589844 131.617188 66.265625 130.253906 C 58.894531 132.640625 26.054688 154.835938 72.890625 168.082031 C 73.09375 168.152344 73.367188 168.21875 73.574219 168.289062 C 73.707031 166.71875 73.84375 165.148438 73.980469 163.507812 C 80.261719 109.902344 128.808594 71.59375 182.402344 77.875 C 224.9375 82.859375 257.847656 114.546875 266.449219 154.152344 C 247.058594 167.332031 207.1875 179.078125 165.742188 183.378906 C 116.925781 188.433594 65.789062 183.925781 42.164062 170.269531 Z M 42.164062 170.269531 " fill-opacity="1" fill-rule="evenodd"/><path fill="#222831" d="M 293.417969 99.113281 C 303.386719 104.507812 319.5 114.886719 325.917969 111.746094 C 330.832031 109.289062 335.816406 106.828125 340.800781 104.371094 C 356.707031 96.585938 362.578125 109.765625 348.992188 118.917969 L 336.5 127.65625 C 330.628906 131.753906 331.445312 148.828125 331.855469 160.160156 C 332.0625 165.214844 330.148438 168.015625 327.625 169.789062 C 326.324219 170.679688 325.710938 170.472656 325.300781 168.972656 C 322.707031 159 320.179688 149.03125 317.585938 139.0625 C 317.109375 137.082031 316.496094 136.261719 314.515625 137.21875 C 307.550781 140.632812 300.585938 143.976562 293.621094 147.390625 C 293.074219 147.664062 292.804688 147.9375 292.941406 148.554688 C 293.828125 155.109375 292.941406 162.003906 288.5 164.464844 C 287.476562 165.011719 286.863281 165.078125 286.660156 163.710938 C 286.042969 159.617188 285.90625 154.222656 285.222656 150.464844 C 282.21875 151.285156 280.648438 148.757812 282.425781 146.4375 L 271.363281 140.5625 C 268.839844 139.199219 270.273438 137.898438 272.253906 137.285156 C 276.484375 135.988281 282.492188 137.96875 287.273438 140.5625 C 288.023438 140.972656 288.433594 141.042969 289.117188 140.496094 L 308.371094 125.0625 C 309.941406 123.765625 309.53125 123.285156 308.164062 122.195312 L 282.5625 101.296875 C 281.128906 100.136719 281.539062 99.386719 283.175781 98.703125 C 286.453125 97.339844 289.253906 96.792969 293.417969 99.113281 " fill-opacity="1" fill-rule="evenodd"/></svg>